<svg width="800" height="800" viewBox="0 0 800 800" fill="none" xmlns="http://www.w3.org/2000/svg">
<path fill-rule="evenodd" clip-rule="evenodd" d="M399.5 33C468.244 33 525.987 36.6359 573.584 47.2139C621.599 57.8845 661.503 76.1007 692.201 106.798C722.899 137.495 741.115 177.402 751.787 225.415C762.364 273.013 766 330.756 766 399.5C766 468.244 762.364 525.987 751.787 573.584C741.115 621.599 722.899 661.503 692.201 692.201C661.503 722.899 621.599 741.115 573.584 751.787C525.987 762.364 468.244 766 399.5 766C330.756 766 273.013 762.364 225.415 751.787C177.402 741.115 137.495 722.899 106.798 692.201C76.1007 661.503 57.8845 621.599 47.2139 573.584C36.6359 525.987 33 468.244 33 399.5C33 330.756 36.6359 273.013 47.2139 225.415C57.8845 177.402 76.1006 137.495 106.798 106.798C137.495 76.1006 177.402 57.8845 225.415 47.2139C273.013 36.6359 330.756 33 399.5 33ZM399.5 183C369.607 183 345.375 207.233 345.375 237.125V345.375H237.125C207.233 345.375 183 369.607 183 399.5C183 429.393 207.233 453.625 237.125 453.625H345.375V561.875C345.375 591.768 369.607 616 399.5 616C429.393 616 453.625 591.768 453.625 561.875V453.625H561.875C591.768 453.625 616 429.393 616 399.5C616 369.607 591.768 345.375 561.875 345.375H453.625V237.125C453.625 207.233 429.393 183 399.5 183Z" fill="black"/>
</svg>
